<svg height="511pt" viewBox="1 0 511.999 511" width="511pt" xmlns="http://www.w3.org/2000/svg"><path fill="#EC1F23" d="m200.554688 230.996094.320312-24.246094-21.78125 10.558594c-6.617188 3.210937-8.988281 5.960937-10.429688 8.230468l-.011718.015626c-5.054688 7.96875-2.707032 18.582031 5.253906 23.667968 2.835938 1.808594 6.011719 2.671875 9.148438 2.671875 5.65625 0 11.207031-2.804687 14.46875-7.9375 1.445312-2.273437 2.929687-5.589843 3.03125-12.960937zm0 0"/><path fill="#EC1F23" d="m273.007812 231 .324219-24.25-21.785156 10.558594c-6.625 3.210937-8.992187 5.96875-10.4375 8.238281l-.003906.007813c-5.058594 7.972656-2.707031 18.585937 5.253906 23.667968 2.839844 1.8125 6.011719 2.675782 9.152344 2.675782 5.660156 0 11.207031-2.808594 14.464843-7.941407 1.441407-2.269531 2.929688-5.585937 3.03125-12.957031zm0 0"/><path fill="#EC1F23" d="m324 217.308594c-6.625 3.210937-8.992188 5.96875-10.4375 8.238281l-.003906.007813c-5.058594 7.972656-2.703125 18.585937 5.25 23.664062 2.839844 1.8125 6.015625 2.679688 9.15625 2.679688 5.660156 0 11.207031-2.808594 14.464844-7.941407 1.441406-2.269531 2.929687-5.589843 3.027343-12.960937l.324219-24.246094zm0 0"/><path fill="#EC1F23" d="m198.554688 299.441406c-5.058594 7.972656-2.703126 18.589844 5.253906 23.667969 2.839844 1.808594 6.015625 2.671875 9.15625 2.671875 5.65625 0 11.203125-2.804688 14.457031-7.929688 1.445313-2.273437 2.9375-5.59375 3.035156-12.96875l.320313-24.246093-21.78125 10.558593c-6.625 3.210938-8.996094 5.96875-10.441406 8.246094zm0 0"/><path fill="#EC1F23" d="m271.007812 299.441406c-2.449218 3.863282-3.253906 8.449219-2.261718 12.921875.992187 4.472657 3.660156 8.285157 7.511718 10.742188 2.78125 1.773437 5.9375 2.6875 9.152344 2.6875 1.246094 0 2.5-.136719 3.742188-.414063 4.460937-.992187 8.269531-3.664062 10.726562-7.535156 1.445313-2.273438 2.933594-5.589844 3.03125-12.960938l.320313-24.25-21.78125 10.5625c-6.625 3.210938-8.996094 5.96875-10.441407 8.246094zm0 0"/><path fill="#EC1F23" d="m246.875 362.261719c-6.621094 3.210937-8.992188 5.964843-10.433594 8.238281-2.457031 3.863281-3.261718 8.457031-2.269531 12.925781.988281 4.472657 3.660156 8.289063 7.511719 10.746094 2.78125 1.773437 5.9375 2.6875 9.152344 2.6875 1.246093 0 2.5-.136719 3.746093-.414063 4.460938-.992187 8.269531-3.671874 10.722657-7.53125 1.441406-2.273437 2.933593-5.589843 3.03125-12.964843l.320312-24.25zm0 0"/><path fill="#EC1F23" d="m436.066406 446.042969c4.140625 1.308593 8.5 2 12.964844 2 11.453125 0 22.21875-4.472657 30.316406-12.585938 12.550782-12.578125 23.125-53.0625 27.089844-69.882812l5.5625-23.601563-23.550781 5.574219c-11.769531 2.785156-35.136719 8.832031-52.386719 16.53125v-14.160156c16.289062-6.09375 27.921875-21.839844 27.921875-40.261719 0-17.789062-21.085937-53.910156-30.152344-68.613281l-12.71875-20.628907-12.71875 20.628907c-9.066406 14.707031-30.152343 50.824219-30.152343 68.613281 0 18.421875 11.632812 34.167969 27.917968 40.261719v14.160156c-17.246094-7.699219-40.613281-13.746094-52.382812-16.53125l-23.550782-5.574219 5.5625 23.601563c3.964844 16.820312 14.539063 57.304687 27.089844 69.882812 8.097656 8.113281 18.863282 12.585938 30.316406 12.585938 4.464844 0 8.824219-.691407 12.964844-2v35.503906h-298.472656v-35.503906c4.140625 1.308593 8.503906 2 12.96875 2 11.449219 0 22.214844-4.472657 30.3125-12.585938 12.550781-12.578125 23.125-53.0625 27.089844-69.882812l5.5625-23.601563-23.546875 5.574219c-11.769531 2.785156-35.140625 8.832031-52.386719 16.53125v-14.160156c16.289062-6.09375 27.917969-21.839844 27.917969-40.261719 0-17.789062-21.085938-53.910156-30.148438-68.613281l-12.714843-20.628907-12.71875 20.628907c-9.066407 14.707031-30.152344 50.828125-30.152344 68.613281 0 18.421875 11.632812 34.167969 27.917968 40.265625v14.15625c-17.246093-7.699219-40.613281-13.742187-52.386718-16.53125l-23.546875-5.570313 5.5625 23.597657c3.964843 16.824219 14.539062 57.308593 27.089843 69.882812 8.097657 8.117188 18.863282 12.585938 30.3125 12.585938 4.46875 0 8.828126-.6875 12.96875-2v35.503906h-77.226562v29.964844h510.316406v-29.964844h-74.8125zm3.777344-50.132813c3.125-2.875 15.539062-7.777344 30.785156-12.46875-4.683594 15.285156-9.574218 27.726563-12.425781 30.828125-2.449219 2.453125-5.707031 3.804688-9.171875 3.804688-3.460938 0-6.71875-1.351563-9.167969-3.804688-5.046875-5.0625-5.054687-13.289062-.019531-18.359375zm-18.730469-116.851562c7.476563 14.132812 12.800781 26.394531 12.96875 30.597656 0 7.167969-5.816406 12.996094-12.96875 12.996094-7.140625 0-12.949219-5.8125-12.964843-12.964844.179687-4.246094 5.5-16.507812 12.964843-30.628906zm-18.746093 135.210937c-2.449219 2.453125-5.707032 3.804688-9.171876 3.804688-3.460937 0-6.71875-1.351563-9.136718-3.773438-2.867188-3.113281-7.761719-15.566406-12.453125-30.863281 15.238281 4.691406 27.648437 9.59375 30.78125 12.472656 2.429687 2.449219 3.769531 5.695313 3.777343 9.148438v.039062c-.003906 3.464844-1.351562 6.71875-3.796874 9.171875zm-290.898438-18.359375c3.128906-2.875 15.542969-7.777344 30.785156-12.46875-4.683594 15.285156-9.574218 27.726563-12.425781 30.828125-2.449219 2.453125-5.707031 3.804688-9.167969 3.804688-3.464844 0-6.722656-1.351563-9.171875-3.808594-2.445312-2.449219-3.792969-5.703125-3.796875-9.167969v-.039062c.003906-3.453125 1.347656-6.703125 3.777344-9.148438zm-18.726562-116.851562c7.476562 14.132812 12.796874 26.394531 12.964843 30.597656 0 7.167969-5.816406 12.996094-12.964843 12.996094-7.140626 0-12.953126-5.8125-12.96875-12.964844.183593-4.246094 5.5-16.507812 12.96875-30.628906zm-18.75 135.210937c-2.449219 2.453125-5.707032 3.804688-9.171876 3.804688-3.460937 0-6.71875-1.351563-9.136718-3.773438-2.867188-3.113281-7.765625-15.566406-12.453125-30.863281 15.238281 4.691406 27.648437 9.59375 30.78125 12.472656 5.035156 5.070313 5.03125 13.296875-.019531 18.359375zm0 0"/><path  fill="#EC1F23" d="m73.199219 143.34375h29.902343v-22.972656h49.300782l38.863281 50.945312h129.863281l36.929688-50.945312h50.28125v22.972656h29.902344v-87.875l73.195312-15.984375v-38.984375h-31.457031v14.957031l-56.691407 12.644531-56.6875-12.644531v-14.957031h-29.902343v38.984375l71.640625 15.984375v34.933594h-100.996094v-5.199219c0-23.320313-15.476562-43.074219-36.671875-49.515625v-35.1875h-29.902344v35.1875c-21.195312 6.441406-36.671875 26.195312-36.671875 49.515625v5.199219h-100.996094v-34.933594l71.640626-15.984375v-38.984375h-29.902344v14.957031l-56.691406 12.644531-56.6875-12.644531v-14.957031h-31.460938v38.984375l73.199219 15.984375zm160.800781-58.140625c0-12.003906 9.742188-21.769531 21.71875-21.769531s21.722656 9.765625 21.722656 21.769531v5.199219h-43.441406zm73.34375 35.167969h13.757812l-15.207031 20.980468h-99.847656l-16.003906-20.980468zm0 0"/></svg>