<svg height="682pt" viewBox="-127 -21 682 682.66669" width="682pt" xmlns="http://www.w3.org/2000/svg"><path fill="#EC1F23" d="m251.171875 52.5h-18.75v-18.75h18.75zm-31.25 0h-18.75v-18.75h18.75zm0 0"/><path fill="#EC1F23" d="m398.742188 0h-345.144532l-22.847656 22.847656v89.738282h-21.21875l-16.28125 16.28125v87.621093l16.28125 16.28125h21.21875v18.75h-21.21875l-16.28125 16.273438v87.621093l16.28125 16.28125h21.21875v245.457032l22.847656 22.847656h345.144532l22.847656-22.847656v-594.304688zm-381.449219 214.019531-5.292969-5.300781v-72.082031l5.292969-5.300781h13.457031v82.683593zm0 138.925781-5.292969-5.292968v-72.089844l5.292969-5.292969h13.457031v82.679688h-13.457031zm385.546875 256.445313-11.859375 11.859375h-329.621094l-11.859375-11.859375v-578.78125l11.859375-11.859375h329.621094l11.859375 11.859375zm0 0"/><path fill="#EC1F23" d="m303.523438 37.5-29.453126 29.453125h-95.800781l-29.453125-29.453125h-62.097656l-18.46875 18.46875v528.0625l18.46875 18.46875h278.90625c4.738281-4.742188 13.742188-13.742188 18.464844-18.46875v-528.0625l-18.464844-18.46875zm-71.136719 546.25 33.328125-33.328125 33.335937 33.328125zm132.953125-13.257812-59.847656-59.847657 59.847656-59.847656zm0-199.246094-43.28125 43.285156-44.105469-44.101562-13.257813 13.257812 57.363282 57.363281 43.28125-43.285156v26.515625l-86.363282 86.363281 73.105469 73.105469h-26.515625l-59.851562-59.847656-59.84375 59.847656h-26.515625l129.441406-129.445312-47.136719-47.136719-13.257812 13.257812 33.882812 33.878907-129.449218 129.445312h-58.355469l-7.480469-7.480469v-128.863281l34.292969-34.289062-13.257813-13.257813-21.035156 21.03125v-26.519531l18.9375-18.9375-13.257812-13.253906-5.679688 5.675781v-97.902344l23.109375 23.109375 13.261719-13.257812-36.371094-36.371094v-26.519532l52.832031 52.832032 13.257813-13.257813-66.089844-66.089843v-126.667969l7.480469-7.480469h46.566406l29.453125 29.453125h8.566406l95.042969 95.042969-69.710937 69.714844 13.257812 13.257812 82.96875-82.972656-95.046875-95.042969h26.515625l81.785156 81.789063 51.460938-51.457032v26.511719l-126.289063 126.289063 13.257813 13.257812 113.03125-113.027344zm-51.453125-230.273438-55.273438-55.269531h23.226563l29.453125-29.453125h46.566406l7.480469 7.480469v25.785156zm0 0"/><path fill="#EC1F23" d="m186.671875 266.265625c-43.46875 0-78.839844 35.367187-78.839844 78.835937 0 40.085938 63.800781 135.414063 71.078125 146.15625l7.757813 11.457032 7.765625-11.457032c7.273437-10.742187 71.074218-106.070312 71.074218-146.15625.003907-43.46875-35.363281-78.835937-78.835937-78.835937zm0 202.726563c-21.933594-33.898438-60.089844-98.207032-60.089844-123.890626 0-33.128906 26.957031-60.085937 60.089844-60.085937s60.089844 26.957031 60.089844 60.085937c0 25.683594-38.160157 89.992188-60.089844 123.890626zm0 0"/><path fill="#EC1F23" d="m186.671875 305.625c-21.769531 0-39.480469 17.710938-39.480469 39.476562 0 21.773438 17.710938 39.484376 39.480469 39.484376s39.480469-17.710938 39.480469-39.484376c0-21.765624-17.710938-39.476562-39.480469-39.476562zm0 60.210938c-11.429687 0-20.730469-9.304688-20.730469-20.734376 0-11.429687 9.300782-20.726562 20.730469-20.726562 11.433594 0 20.730469 9.296875 20.730469 20.726562 0 11.429688-9.296875 20.734376-20.730469 20.734376zm0 0"/></svg>