<svg height="512pt" viewBox="-1 0 512 512.0002" width="512pt" xmlns="http://www.w3.org/2000/svg"><path fill="#EC1F23" d="m510.226562 293.101562v-60.898437c0-32.582031-26.507812-59.089844-59.09375-59.089844l-310.4375-1.269531.441407-4.113281c6.132812-.304688 13.089843-1.722657 19.582031-5.511719 16.101562-9.398438 24.617188-44.378906 24.617188-44.378906s-34.648438-9.796875-50.75-.402344c-.339844.195312-.652344.414062-.980469.617188-1.066407-1.484376-2.210938-2.921876-3.449219-4.296876-9.515625-10.589843-23.140625-16.664062-37.382812-16.664062-14.238282 0-27.867188 6.074219-37.382813 16.664062-1.257813 1.402344-2.425781 2.871094-3.511719 4.390626-.375-.238282-.738281-.484376-1.125-.710938-16.105468-9.394531-50.753906.402344-50.753906.402344s8.515625 34.980468 24.617188 44.378906c6.570312 3.835938 13.613281 5.242188 19.796874 5.523438l6.308594 58.890624c1.886719 17.582032 14.277344 31.632813 30.550782 36.203126l29.382812 93.355468c1.664062 5.292969 4.179688 10.117188 7.355469 14.355469v111.457031h-14.546875v29.996094h94.082031v-86.789062l21.644531-16.605469c7.058594-5.414063 13.15625-11.871094 18.164063-19.0625h88.316406c5.59375 14.039062 16.355469 25.332031 29.824219 31.691406v19.078125h30v-13.589844c8.753906-.6875 17.074218-3.277344 24.464844-7.445312v62.722656h-14.550782v30h92.394532v-149.6875l-20.855469-41.710938v-86.03125c0-11-2.855469-21.34375-7.851563-30.339843 12.179688 3.472656 21.128906 14.695312 21.128906 27.972656v60.898437zm-179.757812-91.257812v2.722656c0 5.667969-2.207031 10.992188-6.21875 15-5.300781 5.289063-13.09375 7.398438-20.339844 5.503906l-19.941406-5.214843c-8.507812-2.226563-14.65625-9.445313-15.667969-18.011719zm-252.761719-68.035156c3.890625-4.332032 9.242188-6.71875 15.066407-6.71875 5.824218 0 11.175781 2.386718 15.070312 6.71875 3.890625 4.332031 5.691406 9.90625 5.074219 15.699218l-7.925781 73.929688c-.667969 6.257812-5.921876 10.980469-12.21875 10.980469-6.296876 0-11.550782-4.71875-12.222657-10.980469l-7.921875-73.929688c-.617187-5.792968 1.183594-11.367187 5.078125-15.699218zm70.304688 348.195312v-93.148437c2.640625.449219 5.347656.6875 8.105469.6875h11.429687v92.457031h-19.535156zm232.769531-85.089844c-12.652344 0-23.628906-8.085937-27.664062-19.589843l23.257812-26.066407 6.5 10.449219c5.707031 9.167969 12.378906 17.644531 19.847656 25.335938-5.460937 6.171875-13.363281 9.871093-21.941406 9.871093zm77.023438 85.089844h-17.84375v-66.964844c.191406.101563.382812.214844.582031.316407l17.261719 9.085937zm-3.289063-93.195312c-18.914063-9.953125-34.875-24.804688-46.167969-42.949219l-27.679687-44.484375-51.890625 58.171875h-78.046875c1.480469-6.335937 2.253906-12.863281 2.253906-19.453125v-36.300781h-30v36.300781c0 17.402344-8.242187 34.117188-22.050781 44.707031l-3.386719 2.601563v-82.609375h-30v54.753906h-11.433594c-7.75 0-14.519531-4.964844-16.84375-12.359375l-27.464843-87.269531c12.457031-6.265625 21.4375-18.53125 23.019531-33.285157l2.65625-24.789062h100.71875c1.078125 22.21875 16.46875 41.355469 38.175781 47.03125l19.941406 5.21875c4.246094 1.109375 8.570313 1.652344 12.867188 1.652344 13.414062-.003906 26.5625-5.273438 36.257812-14.949219 9.6875-9.671875 15.027344-22.539063 15.027344-36.230469v-2.722656h43.746094c18.046875 0 32.730468 14.683594 32.730468 32.726562v93.113282l20.855469 41.710937v21.148438zm0 0"/><path fill="#EC1F23" d="m370.496094 240.355469c-7.847656 0-15.363282 6.898437-15 15 .363281 8.125 6.589844 15 15 15 7.847656 0 15.363281-6.898438 15-15-.363282-8.128907-6.589844-15-15-15zm0 0"/><path fill="#EC1F23" d="m376.117188 41.632812c21.949218 12.535157 37.539062 33.976563 42.773437 58.824219l29.355469-6.179687c-6.996094-33.226563-27.863282-61.910156-57.25-78.695313-29.386719-16.785156-64.691406-20.1875-96.871094-9.335937l9.589844 28.421875c24.058594-8.113281 50.449218-5.578125 72.402344 6.964843zm0 0"/><path fill="#EC1F23" d="m346.328125 93.777344c-7.097656-4.050782-15.625-4.875-23.390625-2.253906l9.167969 27.152343 28.042969-5.902343c-1.6875-8.019532-6.726563-14.945313-13.820313-18.996094zm0 0"/><path fill="#EC1F23" d="m375.191406 109.632812 29.359375-6.179687c-4.363281-20.726563-17.378906-38.617187-35.707031-49.089844-18.328125-10.464843-40.351562-12.589843-60.425781-5.820312l9.589843 28.425781c11.957032-4.03125 25.0625-2.777344 35.953126 3.445312 10.894531 6.222657 18.632812 16.871094 21.230468 29.21875zm0 0"/></svg>