<?xml version="1.0" encoding="iso-8859-1"?>
<!-- Generator: Adobe Illustrator 19.0.0, SVG Export Plug-In . SVG Version: 6.00 Build 0)  -->
<svg xmlns="http://www.w3.org/2000/svg" xmlns:xlink="http://www.w3.org/1999/xlink" version="1.1" id="Layer_1" x="0px" y="0px" viewBox="0 0 512 512" style="enable-background:new 0 0 512 512;" xml:space="preserve" width="512" height="512">
<g>
	<path fill="#EC1F23" d="M256,150.001c27.571,0,50.001-22.43,50.001-50S283.57,50,256,50c-27.57,0-50.001,22.43-50.001,50   S228.429,150.001,256,150.001z M256,70.001c16.542,0,30,13.458,30,30s-13.458,30-30,30s-30-13.458-30-30S239.457,70.001,256,70.001   z"/>
	<path fill="#EC1F23" d="M511.947,328.014c-0.235-2.274-1.246-4.456-2.872-6.083l-25-25c-3.906-3.904-10.236-3.904-14.143,0   c-3.905,3.905-3.905,10.237,0,14.143l7.929,7.929h-123.2c-4.557-16.95-20.552-31.302-43.257-40.222   c4.18-5.454,8.434-11.129,12.683-16.968c41.084-56.464,61.915-100.301,61.915-130.292C386.002,59,327.683,0,256,0   c-71.683,0-130.002,59-130.002,131.521c0,29.991,20.831,73.828,61.915,130.292c4.247,5.837,8.5,11.508,12.677,16.96   c-22.706,8.921-38.694,23.279-43.251,40.23H34.138l7.929-7.929c3.905-3.905,3.905-10.237,0-14.143   c-3.905-3.904-10.237-3.904-14.143,0c-0.849,0.849-24.041,24.001-24.982,24.982c-1.814,1.889-2.927,4.393-2.943,7.038   c-0.015,2.635,1.061,5.259,2.924,7.123c0,0,24.995,24.995,25,25c3.807,3.807,10.327,3.814,14.143,0   c3.905-3.905,3.905-10.237,0-14.143l-7.929-7.929H157.33c7.201,26.796,42.991,47.11,88.669,49.715v89.144l-7.929-7.929   c-3.905-3.904-10.237-3.904-14.143,0c-3.905,3.905-3.905,10.237,0,14.143l25,25c0.033,0.033,0.069,0.06,0.102,0.092   c1.864,1.815,4.445,2.853,7.048,2.832c2.593-0.021,5.155-1.095,6.994-2.924l25-25c3.905-3.905,3.905-10.237,0-14.143   c-3.906-3.904-10.236-3.904-14.143,0L266,477.862v-89.144c45.678-2.605,81.468-22.919,88.669-49.715H477.86l-7.929,7.929   c-3.905,3.905-3.905,10.237,0,14.143c3.8,3.8,10.312,3.829,14.143,0l25-25c0.044-0.044,0.081-0.093,0.124-0.137   c1.409-1.457,2.41-3.499,2.696-5.54c0.019-0.135,0.045-0.268,0.058-0.404C512.018,329.333,512.015,328.67,511.947,328.014z    M145.998,131.521C145.998,70.028,195.344,20,256,20s110.002,50.028,110.002,111.521c0,48.297-73.546,141.99-110.003,183.485   C219.542,273.522,145.998,179.848,145.998,131.521z M314.784,355.618c-15.538,8.632-36.415,13.386-58.784,13.386   c-22.369,0-43.246-4.754-58.784-13.387c-13.484-7.49-21.217-17.191-21.217-26.614s7.734-19.123,21.217-26.614   c4.953-2.752,10.461-5.097,16.377-7.029c19.529,24.372,34.809,41.152,35.024,41.387c1.895,2.074,4.574,3.256,7.383,3.256   c2.81,0,5.488-1.182,7.384-3.256c0.215-0.235,15.499-17.02,35.032-41.398c5.914,1.935,11.415,4.287,16.368,7.039   c13.484,7.491,21.217,17.192,21.217,26.615S328.267,348.126,314.784,355.618z"/>
	<path fill="#EC1F23" d="M302.52,177.422c-3.2,4.49-2.149,10.75,2.34,13.95c1.71,1.21,3.71,1.85,5.79,1.85c3.24,0,6.29-1.57,8.16-4.2   c3.2-4.489,2.141-10.75-2.35-13.95c-1.7-1.21-3.7-1.85-5.79-1.85C307.44,173.221,304.39,174.792,302.52,177.422z"/>
	<path fill="#EC1F23" d="M264.149,265.802l31.46-44.191c3.2-4.5,2.141-10.75-2.35-13.949c-1.7-1.21-3.7-1.86-5.79-1.86   c-3.23,0-6.28,1.58-8.151,4.21L256,242.762l-47.391-66.56c-1.87-2.631-4.92-4.2-8.15-4.2c-2.09,0-4.09,0.64-5.79,1.85   c-4.49,3.2-5.55,9.45-2.35,13.941c0,0.01,0,0.01,0,0.01l55.531,78.001c1.88,2.63,4.92,4.2,8.151,4.2   C259.229,270.003,262.269,268.432,264.149,265.802z"/>
</g>















</svg>
