<svg height="512pt" viewBox="-118 0 512 512" width="512pt" xmlns="http://www.w3.org/2000/svg"><path fill="#EC1F23" d="m260.507812 406.792969h-57.613281v15.03125h57.613281v52.601562c0 12.429688-10.113281 22.542969-22.542968 22.542969h-200.390625c-12.433594 0-22.542969-10.113281-22.542969-22.542969v-52.601562h172.835938v-15.03125h-172.835938v-48.304688h-15.03125v115.9375c0 20.71875 16.855469 37.574219 37.574219 37.574219h200.390625c20.71875 0 37.574218-16.855469 37.574218-37.574219v-316.191406h-15.03125zm0 0"/><path fill="#EC1F23" d="m237.964844 0h-127.679688v15.03125h127.679688c12.429687 0 22.542968 10.113281 22.542968 22.542969v22.542969h-245.476562v-22.542969c0-12.429688 10.109375-22.542969 22.542969-22.542969h57.683593v-15.03125h-57.683593c-20.71875 0-37.574219 16.855469-37.574219 37.574219v305.882812h15.03125v-268.308593h245.476562v68.058593h15.03125v-105.632812c0-20.71875-16.855468-37.574219-37.574218-37.574219zm0 0"/><path fill="#EC1F23" d="m160.3125 481.941406v-45.089844h-45.085938v45.089844zm-30.058594-30.058594h15.03125v15.027344h-15.03125zm0 0"/><path fill="#EC1F23" d="m40.078125 387.757812h195.382813v-55.109374h-195.382813zm135.265625-40.078124h45.085938v25.046874h-45.085938zm-60.117188 0h45.085938v25.046874h-45.085938zm-60.117187 0h45.085937v25.046874h-45.085937zm0 0"/><path fill="#EC1F23" d="m86.597656 152.5625-18.183594 57.847656h45.546876l-26.351563 98.820313 129.273437-155.929688h-52.8125l20.039063-63.125h-77.90625l-15.101563 48.050781 14.335938 4.503907 11.796875-37.523438h46.335937l-20.039062 63.121094h41.371094l-65.105469 78.527344 13.726563-51.472657h-44.628907l12.039063-38.3125zm0 0"/><path fill="#EC1F23" d="m177.847656 30.058594h15.027344v15.03125h-15.027344zm0 0"/><path fill="#EC1F23" d="m82.660156 30.058594h15.03125v15.03125h-15.03125zm0 0"/><path fill="#EC1F23" d="m112.71875 30.058594h50.097656v15.03125h-50.097656zm0 0"/><path fill="#EC1F23" d="m140.3125 269.203125 9.589844-11.570313 11.570312 9.589844-9.589844 11.570313zm0 0"/><path fill="#EC1F23" d="m159.496094 246.09375 9.59375-11.570312 11.570312 9.59375-9.59375 11.570312zm0 0"/><path fill="#EC1F23" d="m178.679688 222.953125 9.59375-11.570313 11.570312 9.59375-9.59375 11.570313zm0 0"/></svg>