<?xml version="1.0" encoding="iso-8859-1"?>
<!-- Generator: Adobe Illustrator 22.1.0, SVG Export Plug-In . SVG Version: 6.00 Build 0)  -->
<svg xmlns="http://www.w3.org/2000/svg" xmlns:xlink="http://www.w3.org/1999/xlink" version="1.1" id="Layer_1_1_" x="0px" y="0px" viewBox="0 0 64 64" style="enable-background:new 0 0 64 64;" xml:space="preserve" width="512" height="512">
<g>
	<polygon fill="#EC1F23" points="31.293,52.707 32.586,54 28,54 28,56 32.586,56 31.293,57.293 32.707,58.707 36.414,55 32.707,51.293  "/>
	<rect fill="#EC1F23" x="24" y="54" width="2" height="2"/>
	<rect fill="#EC1F23" x="20" y="54" width="2" height="2"/>
	<polygon fill="#EC1F23" points="12,40.414 13.293,41.707 14.707,40.293 11,36.586 7.293,40.293 8.707,41.707 10,40.414 10,56 18,56 18,54 12,54     "/>
	<path fill="#EC1F23" d="M63,8h-8v2h3v2h-3v2h3v2h-3v2h3v2h-3v2h3v5.064c-1.35,0.164-2.182,0.639-2.924,1.073C54.284,28.6,53.6,29,52.162,29   c-1.439,0-2.123-0.4-2.915-0.863C48.336,27.604,47.304,27,45.323,27c-1.979,0-3.012,0.604-3.922,1.137   C40.577,28.619,39.927,29,38.489,29c-1.436,0-2.085-0.381-2.909-0.863C34.671,27.604,33.64,27,31.661,27   c-1.979,0-3.011,0.604-3.921,1.137C26.917,28.619,26.267,29,24.83,29c-1.436,0-2.086-0.381-2.909-0.863   c-0.741-0.434-1.572-0.91-2.92-1.073V21h14v-6H15v-4h2V8.54L9,1.683L1,8.54V11h2v22H1v30h59V10h3V8z M11,33V17h6v16H11z M5,19h4v2   H5V19z M5,23h4v2H5V23z M5,27h4v2H5V27z M31,19H19v-2h12V19z M9,4.317L14.463,9H3.537L9,4.317z M13,11v4H9v2H5v-6H13z M5,31h4v2H5   V31z M58,61H3V35h16v9h18.261l4,13H58V61z M42.739,55l-4-13H21v-9h-2v-3.922c0.794,0.135,1.307,0.432,1.91,0.785   C21.82,30.396,22.851,31,24.83,31c1.979,0,3.011-0.604,3.921-1.137C29.574,29.381,30.225,29,31.661,29   c1.436,0,2.085,0.381,2.909,0.863C35.479,30.396,36.511,31,38.489,31c1.979,0,3.012-0.604,3.922-1.137   C43.235,29.381,43.886,29,45.323,29c1.438,0,2.122,0.4,2.914,0.863C49.148,30.396,50.181,31,52.162,31   c1.98,0,3.013-0.604,3.924-1.137c0.582-0.34,1.107-0.645,1.915-0.784V55H42.739z"/>
	<path fill="#EC1F23" d="M52,46v2c0.551,0,1,0.448,1,1s-0.449,1-1,1s-1-0.448-1-1h-2c0,1.654,1.346,3,3,3s3-1.346,3-3S53.654,46,52,46z"/>
	<path fill="#EC1F23" d="M30,32c-1.654,0-3,1.346-3,3h2c0-0.552,0.449-1,1-1s1,0.448,1,1s-0.449,1-1,1v2c1.654,0,3-1.346,3-3S31.654,32,30,32z"/>
	<rect fill="#EC1F23" x="52" y="36" width="2" height="2"/>
	<rect fill="#EC1F23" x="43" y="45" width="2" height="2"/>
	<rect fill="#EC1F23" x="23" y="38" width="2" height="2"/>
	<rect fill="#EC1F23" x="43" y="33" width="2" height="2"/>
</g>
</svg>
